<svg width="125" height="125" viewBox="0 0 125 125" fill="none" xmlns="http://www.w3.org/2000/svg">
<path d="M43.6149 100.065L32.1559 104.125V54.5214C32.1559 48.1917 38.6678 39.3906 43.6401 39.3906L43.6149 100.065Z" fill="url(#paint0_linear_140_187)"/>
<path d="M49.319 75.6789V14.8028L60.8032 10.8184V58.9594C60.8032 65.2891 54.4932 75.6789 49.319 75.6789Z" fill="url(#paint1_linear_140_187)"/>
<path d="M93.4133 36.3895C93.9626 37.028 94.6456 37.5382 95.4139 37.8841C96.1823 38.2299 97.0172 38.4029 97.8599 38.3909C98.7025 38.3789 99.5322 38.1821 100.29 37.8145C101.048 37.4469 101.717 36.9174 102.247 36.2634C103.093 35.1671 103.526 33.8087 103.47 32.4258C103.415 31.0428 102.875 29.7234 101.944 28.698C97.3771 23.3893 91.7781 19.0627 85.487 15.9806C79.196 12.8986 72.344 11.1252 65.3464 10.7681V22.3179C70.7303 22.6621 75.9898 24.0853 80.8117 26.5028C85.6336 28.9203 89.9192 32.2826 93.4133 36.3895Z" fill="#2C3F68"/>
<path d="M22.3627 62.4142C22.4021 52.0802 26.4086 42.1552 33.5561 34.6856C40.7036 27.2159 50.4472 22.771 60.778 22.2673V10.7427C50.5229 11.1091 40.6084 14.5138 32.2949 20.5242C23.9814 26.5345 17.6443 34.8789 14.0893 44.4967C10.5342 54.1144 9.92178 64.5712 12.3298 74.5376C14.7378 84.504 20.0575 93.53 27.6126 100.468V82.2103C24.1782 76.1764 22.3693 69.3555 22.3627 62.4142Z" fill="#2C3F68"/>
<path d="M101.263 87.456C100.048 86.6134 98.5612 86.2548 97.0949 86.4508C95.6287 86.6467 94.2886 87.383 93.3377 88.5152C89.5655 92.9405 84.8765 96.4945 79.5947 98.9317C74.313 101.369 68.5646 102.631 62.7468 102.631C56.929 102.631 51.1806 101.369 45.8988 98.9317C40.6171 96.4945 35.9281 92.9405 32.1559 88.5152V104.075C42.7111 111.822 55.8142 115.282 68.8222 113.756C81.8301 112.23 93.775 105.833 102.247 95.8536C102.765 95.2509 103.153 94.5475 103.385 93.7877C103.617 93.0279 103.689 92.2284 103.597 91.4393C103.504 90.6503 103.249 89.889 102.848 89.2034C102.446 88.5179 101.906 87.9229 101.263 87.456Z" fill="#2C3F68"/>
<path d="M62.4943 124.879C50.1341 124.879 38.0515 121.217 27.7744 114.356C17.4972 107.495 9.48717 97.7436 4.75712 86.3342C0.0270778 74.9249 -1.21052 62.3704 1.20084 50.2583C3.61219 38.1462 9.5642 27.0205 18.3042 18.2882C27.0442 9.55583 38.1796 3.60903 50.3023 1.19979C62.425 -1.20946 74.9905 0.0270541 86.4099 4.75296C97.8292 9.47886 107.589 17.4819 114.456 27.75C121.323 38.0182 124.989 50.0902 124.989 62.4396C124.975 78.9955 118.387 94.8695 106.67 106.576C94.9526 118.283 79.0647 124.866 62.4943 124.879ZM62.4943 3.35401C50.792 3.35401 39.3525 6.82144 29.6227 13.3177C19.8929 19.814 12.3099 29.0474 7.83279 39.8499C3.35565 50.6525 2.18551 62.539 4.47036 74.0061C6.75521 85.4731 12.3924 96.0056 20.669 104.271C28.9455 112.537 39.4897 118.165 50.9678 120.443C62.4458 122.721 74.3423 121.547 85.1524 117.069C95.9625 112.591 105.201 105.011 111.699 95.2867C118.196 85.5627 121.662 74.1317 121.657 62.4396C121.637 46.7709 115.396 31.7501 104.305 20.673C93.2134 9.59591 78.1768 3.36736 62.4943 3.35401Z" fill="url(#paint2_linear_140_187)"/>
<defs>
<linearGradient id="paint0_linear_140_187" x1="75.0134" y1="7.59082" x2="0.681065" y2="144.024" gradientUnits="userSpaceOnUse">
<stop stop-color="#BC8459"/>
<stop offset="0.28" stop-color="#97623E"/>
<stop offset="0.42" stop-color="#C3825A"/>
<stop offset="0.55" stop-color="#EA9E72"/>
<stop offset="0.63" stop-color="#F9A97B"/>
<stop offset="0.71" stop-color="#E79B70"/>
<stop offset="0.88" stop-color="#BA7753"/>
<stop offset="1" stop-color="#975B3D"/>
</linearGradient>
<linearGradient id="paint1_linear_140_187" x1="77.1083" y1="93.9619" x2="35.4228" y2="-2.17031" gradientUnits="userSpaceOnUse">
<stop stop-color="#BC8459"/>
<stop offset="0.28" stop-color="#97623E"/>
<stop offset="0.42" stop-color="#C3825A"/>
<stop offset="0.55" stop-color="#EA9E72"/>
<stop offset="0.63" stop-color="#F9A97B"/>
<stop offset="0.71" stop-color="#E79B70"/>
<stop offset="0.88" stop-color="#BA7753"/>
<stop offset="1" stop-color="#975B3D"/>
</linearGradient>
<linearGradient id="paint2_linear_140_187" x1="0.0252681" y1="62.4396" x2="124.989" y2="62.4396" gradientUnits="userSpaceOnUse">
<stop stop-color="#BC8459"/>
<stop offset="0.28" stop-color="#97623E"/>
<stop offset="0.42" stop-color="#C3825A"/>
<stop offset="0.55" stop-color="#EA9E72"/>
<stop offset="0.63" stop-color="#F9A97B"/>
<stop offset="0.71" stop-color="#E79B70"/>
<stop offset="0.88" stop-color="#BA7753"/>
<stop offset="1" stop-color="#975B3D"/>
</linearGradient>
</defs>
</svg>
