<svg version="1.0" xmlns="http://www.w3.org/2000/svg" width="933.333" height="933.333" viewBox="0 0 700 700"><path d="M327.8.5c-.1.1-4.2.5-8.9.9s-9.5.8-10.5 1c-1 .2-4.1.7-6.9 1-2.7.4-7.2 1.1-10 1.6-2.7.5-6.1 1.2-7.5 1.4-8.3 1.4-19.9 4.2-30 7.1C139.4 46.5 50.2 134 15.1 248c-3.7 12.2-8.9 34.5-10.5 45.5-.2 1.6-.8 5-1.2 7.5-2 13.1-2.9 27.2-2.9 49.5 0 25.6 1.2 40.3 5 60.5.3 1.4.7 4.1 1 6 1.1 6.8 7.5 31 10.9 41.3 14.4 43.5 35.7 81.7 65.5 117.2 13.5 16.1 38.5 39.9 53.6 51 2.2 1.7 4.2 3.3 4.5 3.6.8.9 22.2 15.4 25.5 17.3 1.7.9 4.8 2.8 7 4.1 11.2 6.9 38.7 19.9 55.5 26.2 8.1 3 31.1 10.1 35.3 10.8 1.7.3 3.3.8 3.7 1 .6.4 13.1 3.1 18.5 4.1 8.4 1.4 22.3 3.3 28.5 3.9 4.1.3 9.3.8 11.5 1.1 5.8.6 39.9.6 47.5-.1 13.6-1.1 17.9-1.6 30-3.6 80.7-12.8 152-51.7 207.4-112.9 32.8-36.3 60-85.3 74.3-134 2.3-7.9 6.6-25.3 7.6-31 1.9-10 2.7-15.1 3.2-19 .3-2.5.8-6.3 1.1-8.5 1.6-12.5 2.1-24.5 1.8-45.5-.1-12.9-.5-24.4-.7-25.5-.3-1.2-.8-5-1.1-8.6-.7-7.2-.7-6.7-3.5-23-19.9-113.1-98-211.6-204.1-257.6-22.3-9.7-53.8-19.6-72.5-22.8-2.2-.4-4.9-.9-6-1.1-1.8-.3-17.2-2.5-28-3.9-4.2-.6-55.1-1.5-55.7-1zM379.5 20c3.3.5 8.4 1.1 11.4 1.4 2.9.3 7.9 1 11 1.5 3.1.6 7.2 1.3 9.1 1.6 1.9.3 5.5 1.1 8 1.6 2.5.6 5.4 1.2 6.4 1.5 6 1.2 19.5 5 28.6 8.1 94 31.6 167.7 101.2 204.1 193.1 8.1 20.4 15.6 47.2 18.4 65.7 1 6.5 1.6 10.3 1.9 12.1.2 1.1.7 5.4 1.1 9.5.4 4.1.9 9.2 1.1 11.4.5 5.6.5 37.9-.1 44.5-.4 6-1.4 15.8-2 20.2-.3 2.5-.6 4.9-2.1 14.1-.2 1.5-1.1 6-2 10-.8 3.9-1.7 7.9-1.9 8.8-1.3 6.2-6.9 25.6-9.1 31.4-1.4 3.8-3.1 8.8-3.9 11-.7 2.2-2.8 7.6-4.8 12C618 564 551 627.8 465.4 660c-17.4 6.5-47.4 14.4-62.1 16.4-2.2.3-5.2.7-6.5 1-8.8 1.9-27.1 3.1-47.3 3-24 0-36.9-1.1-58.5-5-1.4-.2-3.8-.6-5.5-.9-8.3-1.5-28.7-7-41-11.1-94.6-31.6-169.9-104.4-205-198.2-9.2-24.8-16.6-56.3-19-81.2-.4-3.6-.8-8.5-1.1-11-.5-5.3-.5-42.1 0-46.5.2-1.7.7-6.4 1-10.5.8-8.4.9-8.9 3.1-21.5 2.3-13.7 2.5-14.7 3.7-19 .5-2.2 1.2-4.8 1.4-5.9.8-4.5 5.8-20.9 9.1-30.1 16.6-46.6 41.9-86.9 76.8-122.1C148 83.5 184 59.7 228.5 42c13.1-5.2 34-11.9 42.5-13.5.8-.2 3.3-.8 5.5-1.4 2.2-.5 5.6-1.3 7.5-1.6 1.9-.3 4.2-.8 5-1 .8-.2 2.9-.6 4.5-.9 1.7-.2 4.9-.7 7.3-1.1 6.7-1.1 9.2-1.4 17.2-2 4.1-.3 7.6-.8 7.8-1 .7-.7 48-.2 53.7.5z"/><path d="M330.7 60.6c-.1.1-3.6.5-7.7.8-9.5.8-19.5 2.3-28.5 4.2-3.8.8-7.9 1.6-9 1.9-25.7 5.1-61 19.6-87.2 35.8-27.7 17.2-47.3 34.3-71.7 62.7-17.2 20-38 56.4-47.9 84-4.1 11.3-8.2 24.8-9.2 30.1-.2 1.2-.7 2.9-1 3.9-.7 2.2-1.1 4-3.1 15.5-3.2 18-3.8 26.5-3.9 50 0 23.2.7 32.6 3.9 50 .9 4.4 1.7 9.1 2 10.5 1 6 5.1 20.5 9.1 32.5 13.4 40.1 36.8 78.2 67 109.2 5.6 5.7 10.3 10.3 10.6 10.3.3 0 .5-23.1.4-51.3l-.1-51.2-4.6-8.5c-12.8-24.1-20.1-49.4-23.7-82-.9-7.8-.7-38.4.2-41.7.3-1 .8-4.5 1.2-7.8 2.2-20.7 10.6-47.7 21.9-70.4 22.4-44.9 60.2-81.7 105.9-103.1 12.4-5.7 19.6-8.5 20.3-7.7.3.3.7 64.6.7 142.9l.2 142.3 3-.3c17.6-1.7 41-28 53.8-60.7 2-5 3.8-10.2 4.1-11.7.2-1.5.7-3.1 1-3.6 1.6-2.7 2-26.5 2-149.7l.1-136.9-4.8-.1c-2.6-.1-4.9 0-5 .1zM366 92.7V125l2.3.1c1.2 0 2.9.2 3.7.3.8.2 4.7.7 8.5 1.1 3.9.5 7.2.9 7.5 1 .3.1 2.5.5 5 .9 23.8 4.1 52.3 15 74.4 28.4 18.4 11.1 30 20.4 48.6 39.3 16.8 17 20.2 18.9 32.5 18.5 12.6-.3 22.3-6.8 27.8-18.4 4.8-10.2 3.8-21.7-2.6-31.8-3.5-5.6-25.5-27.8-36.7-37.1-36.1-29.9-78.2-50.5-124-60.6-6.3-1.4-13.1-2.8-15-3.1-5.4-.7-22-2.5-27.2-2.9l-4.8-.4v32.4z"/><path d="M238 221.5c-19.6 5.2-41.9 29.9-52.7 58.4-5.3 14-5.2 10.8-5.3 162.3v140.7l8.2 5.6c33.5 23.1 76.1 40.2 115.8 46.5 4.1.6 8.6 1.3 10 1.6 11.7 1.9 50.4 2.6 64.5 1.2 54.7-5.7 104.7-25 147.3-57 5.3-4 10.4-8 11.2-8.8.9-.8 3.4-3 5.5-4.8 8.3-6.9 22.5-21.3 29.8-30.1 13.8-16.7 8.8-41-10.2-50-4.7-2.2-7-2.6-14.1-2.6-12.9 0-15.7 1.7-32.5 18.9-20.9 21.5-35.6 32.7-60.2 45.8-16 8.5-40.6 17.5-55.3 20.1-1.4.3-6.1 1.2-10.5 2-23 4.4-54.5 4.3-78.5-.3-20.8-4-36.8-9.1-55.7-18l-11-5.1.1-163.1c.1-107.6-.2-163.2-.9-163.7-.5-.5-3-.3-5.5.4z"/></svg>