<svg width="324" height="76" viewBox="0 0 324 76" fill="none" xmlns="http://www.w3.org/2000/svg">
<g clip-path="url(#clip0_140_327)">
<path d="M103.099 33.1416C102.307 33.1624 101.519 33.0233 100.783 32.733C100.046 32.4426 99.3783 32.0071 98.819 31.453C97.72 30.3457 97.1046 28.8579 97.1046 27.3084C97.1046 25.7589 97.72 24.2711 98.819 23.1638C99.8481 22.1924 101.189 21.6057 102.609 21.5048C104.03 21.404 105.442 21.7952 106.602 22.6112C107.606 23.3116 108.328 24.3389 108.641 25.5124H106.104C105.871 24.9537 105.454 24.4886 104.921 24.1923C104.369 23.8701 103.74 23.7004 103.099 23.701C102.612 23.6855 102.126 23.7703 101.673 23.95C101.22 24.1297 100.81 24.4004 100.469 24.7449C100.135 25.0837 99.8733 25.4851 99.6995 25.9255C99.5257 26.3658 99.4433 26.8361 99.4572 27.3084C99.4447 27.7828 99.5277 28.255 99.7013 28.6977C99.875 29.1403 100.136 29.5446 100.469 29.8873C100.811 30.2297 101.221 30.4981 101.674 30.6752C102.127 30.8523 102.613 30.9342 103.099 30.9157C103.74 30.9164 104.369 30.7467 104.921 30.4245C105.458 30.133 105.876 29.6664 106.104 29.1044H108.641C108.324 30.2802 107.604 31.3111 106.602 32.021C105.586 32.7544 104.358 33.1472 103.099 33.1416Z" fill="white"/>
<path d="M115.816 32.942V23.8699H112.703V21.6748H121.171V23.8699H118.058V32.942H115.816Z" fill="white"/>
<path d="M133.047 22.7644C133.413 23.1174 133.703 23.5389 133.902 24.0042C134.1 24.4694 134.202 24.969 134.202 25.4737C134.202 25.9784 134.1 26.478 133.902 26.9433C133.703 27.4085 133.413 27.83 133.047 28.1831C132.666 28.5411 132.217 28.8206 131.725 29.0051C131.233 29.1896 130.709 29.2754 130.183 29.2576H128.72V32.9417H126.385V21.6745H130.183C130.71 21.6595 131.235 21.7482 131.726 21.9353C132.218 22.1224 132.667 22.4043 133.047 22.7644ZM131.491 26.648C131.652 26.4966 131.779 26.3127 131.862 26.1087C131.945 25.9048 131.983 25.6856 131.973 25.466C131.981 25.249 131.942 25.0328 131.859 24.8316C131.776 24.6305 131.65 24.4491 131.491 24.2994C131.317 24.1418 131.114 24.0199 130.892 23.9408C130.67 23.8618 130.434 23.8271 130.199 23.8389H128.767V27.1085H130.199C130.659 27.12 131.105 26.9549 131.444 26.648H131.491Z" fill="white"/>
<path d="M148.846 31.4373C148.298 31.9776 147.648 32.4061 146.932 32.6985C146.216 32.9909 145.449 33.1414 144.675 33.1414C143.9 33.1414 143.133 32.9909 142.417 32.6985C141.701 32.4061 141.051 31.9776 140.503 31.4373C139.944 30.9018 139.5 30.2595 139.201 29.5496C138.901 28.8396 138.751 28.077 138.76 27.308C138.759 26.3479 138.998 25.4023 139.457 24.5552C139.915 23.7082 140.578 22.9858 141.388 22.4523C142.197 21.9187 143.128 21.5905 144.097 21.4967C145.066 21.4028 146.043 21.5464 146.942 21.9145C147.842 22.2826 148.635 22.864 149.251 23.607C149.868 24.3499 150.289 25.2316 150.478 26.1736C150.666 27.1156 150.616 28.0889 150.331 29.0072C150.046 29.9254 149.536 30.7601 148.846 31.4373ZM142.153 29.9023C142.48 30.2365 142.871 30.5024 143.305 30.684C143.738 30.8656 144.204 30.9592 144.675 30.9592C145.145 30.9592 145.611 30.8656 146.045 30.684C146.478 30.5024 146.87 30.2365 147.196 29.9023C147.866 29.2183 148.24 28.3048 148.24 27.3541C148.24 26.4034 147.866 25.4899 147.196 24.8059C146.87 24.4717 146.478 24.2058 146.045 24.0242C145.611 23.8426 145.145 23.749 144.675 23.749C144.204 23.749 143.738 23.8426 143.305 24.0242C142.871 24.2058 142.48 24.4717 142.153 24.8059C141.483 25.4899 141.109 26.4034 141.109 27.3541C141.109 28.3048 141.483 29.2183 142.153 29.9023Z" fill="white"/>
<path d="M157.999 32.9416H155.991V21.6744H158.341V29.0273L164.178 21.6744H166.201V32.9416H163.882V25.5734L157.999 32.9416ZM163.244 20.2775C162.701 20.7705 161.99 21.0441 161.252 21.0441C160.514 21.0441 159.802 20.7705 159.259 20.2775C158.989 20.0171 158.777 19.7035 158.638 19.357C158.498 19.0106 158.434 18.639 158.45 18.2666H159.898C159.874 18.6639 160.008 19.0547 160.271 19.3565C160.4 19.4837 160.553 19.5846 160.721 19.6534C160.889 19.7222 161.07 19.7577 161.252 19.7577C161.434 19.7577 161.614 19.7222 161.783 19.6534C161.951 19.5846 162.104 19.4837 162.232 19.3565C162.495 19.0547 162.629 18.6639 162.606 18.2666H164.053C164.069 18.639 164.005 19.0106 163.866 19.357C163.726 19.7035 163.515 20.0171 163.244 20.2775Z" fill="white"/>
<path d="M176.942 33.1416C175.683 33.1472 174.455 32.7544 173.439 32.021C172.437 31.315 171.72 30.2818 171.416 29.1044H173.938C174.17 29.6631 174.587 30.1281 175.12 30.4245C175.672 30.7467 176.301 30.9164 176.942 30.9157C177.76 30.9339 178.56 30.6797 179.214 30.1943C179.84 29.734 180.281 29.0709 180.459 28.3215H175.572V26.2953H180.459C180.277 25.5475 179.837 24.8854 179.214 24.4225C178.56 23.9371 177.76 23.6829 176.942 23.701C176.301 23.7004 175.672 23.8701 175.12 24.1923C174.591 24.4932 174.175 24.9568 173.938 25.5124H171.416C171.717 24.3378 172.435 23.3085 173.439 22.6112C174.599 21.7952 176.011 21.404 177.432 21.5048C178.852 21.6057 180.193 22.1924 181.222 23.1638C182.321 24.2711 182.937 25.7589 182.937 27.3084C182.937 28.8579 182.321 30.3457 181.222 31.453C180.664 32.0085 179.996 32.4451 179.26 32.7355C178.523 33.026 177.734 33.1642 176.942 33.1416Z" fill="white"/>
<path d="M188.413 32.942V21.6748H190.748V26.1725H195.713V21.6748H198.048V32.942H195.713V28.3369H190.748V32.942H188.413Z" fill="white"/>
<path d="M204.072 32.942V21.6748H211.185V23.8699H206.407V26.1878H210.205V28.3676H206.391V30.7009H211.17V32.8806L204.072 32.942Z" fill="white"/>
<path d="M223.42 22.7647C224.147 23.484 224.555 24.4583 224.555 25.474C224.555 26.4897 224.147 27.464 223.42 28.1834C223.038 28.54 222.588 28.8186 222.097 29.003C221.605 29.1874 221.081 29.274 220.556 29.2579H218.999V32.942H216.68V21.6748H220.478C221.018 21.6512 221.556 21.7356 222.062 21.9229C222.568 22.1102 223.03 22.3965 223.42 22.7647ZM221.863 26.6483C222.025 26.4969 222.152 26.3129 222.235 26.109C222.318 25.9051 222.356 25.6859 222.346 25.4663C222.354 25.2493 222.315 25.033 222.232 24.8319C222.148 24.6308 222.023 24.4494 221.863 24.2997C221.693 24.1426 221.492 24.0208 221.273 23.9417C221.053 23.8626 220.82 23.8277 220.587 23.8392H219.139V27.1088H220.587C221.037 27.1155 221.472 26.9505 221.801 26.6483H221.863Z" fill="white"/>
<path d="M236.573 21.6748V23.8699H232.152V32.942H229.802V21.6748H236.573Z" fill="white"/>
<path d="M250.675 31.4377C249.847 32.2501 248.793 32.8025 247.647 33.0253C246.501 33.2481 245.314 33.1314 244.236 32.6897C243.157 32.2481 242.235 31.5014 241.586 30.5437C240.937 29.5861 240.59 28.4603 240.588 27.3084C240.666 25.8151 241.322 24.4083 242.422 23.3785C243.521 22.3486 244.979 21.7744 246.495 21.7744C248.012 21.7744 249.47 22.3486 250.569 23.3785C251.669 24.4083 252.325 25.8151 252.403 27.3084C252.414 28.0764 252.267 28.8387 251.97 29.5487C251.673 30.2586 251.232 30.9014 250.675 31.4377ZM243.982 29.9027C244.307 30.2365 244.697 30.5021 245.129 30.6835C245.561 30.8649 246.026 30.9584 246.495 30.9584C246.965 30.9584 247.43 30.8649 247.862 30.6835C248.294 30.5021 248.684 30.2365 249.009 29.9027C249.679 29.2187 250.053 28.3052 250.053 27.3545C250.053 26.4038 249.679 25.4903 249.009 24.8063C248.684 24.4725 248.294 24.2069 247.862 24.0255C247.43 23.8441 246.965 23.7505 246.495 23.7505C246.026 23.7505 245.561 23.8441 245.129 24.0255C244.697 24.2069 244.307 24.4725 243.982 24.8063C243.312 25.4903 242.938 26.4038 242.938 27.3545C242.938 28.3052 243.312 29.2187 243.982 29.9027Z" fill="white"/>
<path d="M264.559 21.6748V23.8699H260.154V32.942H257.804V21.6748H264.559Z" fill="white"/>
<path d="M276.389 22.7644C277.116 23.4837 277.524 24.458 277.524 25.4737C277.524 26.4894 277.116 27.4637 276.389 28.1831C276.008 28.5411 275.558 28.8206 275.067 29.0051C274.575 29.1896 274.051 29.2754 273.525 29.2576H272.062V32.9417H269.727V21.6745H273.525C274.052 21.6595 274.576 21.7482 275.068 21.9353C275.56 22.1224 276.009 22.4043 276.389 22.7644ZM274.832 26.648C274.989 26.4931 275.113 26.3086 275.196 26.1055C275.279 25.9024 275.319 25.6849 275.315 25.466C275.323 25.249 275.284 25.0328 275.201 24.8316C275.117 24.6305 274.992 24.4491 274.832 24.2994C274.48 23.984 274.016 23.8185 273.54 23.8389H272.108V27.1085H273.54C274 27.1169 274.445 26.9522 274.786 26.648H274.832Z" fill="white"/>
<path d="M283.502 33.0187V30.9003C283.844 30.9282 284.188 30.9282 284.53 30.9003C284.843 30.9127 285.156 30.8604 285.448 30.7468C285.742 30.6139 285.987 30.3939 286.148 30.1174L281.697 21.6133H284.374L287.487 27.5539L290.491 21.6133H293.137L288.763 30.1328C288.358 30.9941 287.775 31.7627 287.051 32.3893C286.424 32.8548 285.656 33.0982 284.872 33.0801C284.414 33.1018 283.956 33.0813 283.502 33.0187Z" fill="white"/>
<path d="M305.014 32.942V23.8699H300.173V32.942H297.838V21.6748H307.348V32.942H305.014Z" fill="white"/>
<path d="M320.594 32.942V23.8699H315.754V32.942H313.419V21.6748H322.914V32.942H320.594Z" fill="white"/>
<path d="M100.765 57.6561C100.271 57.6649 99.7796 57.5816 99.3171 57.4105C98.8819 57.2444 98.4849 56.9939 98.1497 56.6737C97.8281 56.3551 97.5695 55.9804 97.387 55.5685C97.0134 54.6737 97.0134 53.6695 97.387 52.7747C97.5694 52.3589 97.8339 51.9832 98.1653 51.6695C98.4983 51.3578 98.8894 51.1127 99.3171 50.948C99.7802 50.7555 100.278 50.6563 100.78 50.6563C101.311 50.6444 101.84 50.733 102.337 50.9173C102.777 51.0931 103.172 51.3662 103.489 51.7155L102.835 52.3295C102.588 52.0631 102.286 51.8535 101.948 51.7155C101.262 51.4495 100.5 51.4495 99.8152 51.7155C99.4892 51.8386 99.1924 52.0267 98.9435 52.2681C98.6995 52.5023 98.5086 52.7848 98.3832 53.0971C98.2447 53.4279 98.1758 53.783 98.1808 54.1409C98.1728 54.8448 98.4469 55.5233 98.9435 56.029C99.1933 56.2655 99.4901 56.4485 99.8152 56.5662C100.5 56.8323 101.262 56.8323 101.948 56.5662C102.286 56.4283 102.588 56.2187 102.835 55.9522L103.489 56.5662C103.166 56.9095 102.774 57.1815 102.337 57.3645C101.839 57.5684 101.304 57.6678 100.765 57.6561Z" fill="white"/>
<path d="M109.855 57.5797V51.4395L110.104 51.6851H107.473V50.8408H113.17V51.6851H110.586L110.835 51.4395V57.5797H109.855Z" fill="white"/>
<path d="M118.167 57.5795V50.7639H120.86C121.392 50.7508 121.922 50.8448 122.416 51.0402C122.818 51.2164 123.159 51.5045 123.397 51.8691C123.621 52.2575 123.738 52.6965 123.738 53.1432C123.738 53.5899 123.621 54.0289 123.397 54.4173C123.158 54.7774 122.817 55.0603 122.416 55.2309C121.925 55.4391 121.394 55.5386 120.86 55.5225H118.712L119.147 55.062V57.5795H118.167ZM119.147 55.1541L118.712 54.6783H120.828C121.338 54.7124 121.844 54.5714 122.26 54.2791C122.421 54.1353 122.549 53.9599 122.637 53.7643C122.725 53.5687 122.77 53.3571 122.77 53.1432C122.77 52.9293 122.725 52.7178 122.637 52.5221C122.549 52.3265 122.421 52.1512 122.26 52.0073C121.844 51.715 121.338 51.574 120.828 51.6082H118.712L119.147 51.117V55.1541Z" fill="white"/>
<path d="M132.082 57.6563C131.582 57.666 131.084 57.5773 130.619 57.3953C130.181 57.2348 129.783 56.9836 129.452 56.6585C129.118 56.3464 128.853 55.9703 128.673 55.5533C128.482 55.1175 128.387 54.6466 128.393 54.1717C128.388 53.7079 128.479 53.2479 128.661 52.8202C128.843 52.3924 129.112 52.0061 129.452 51.685C129.783 51.3599 130.181 51.1086 130.619 50.9482C131.086 50.7721 131.582 50.6836 132.082 50.6872C133.054 50.669 133.997 51.0208 134.713 51.6696C135.039 51.984 135.299 52.3598 135.475 52.7749C135.849 53.6697 135.849 54.6738 135.475 55.5686C135.299 55.9837 135.039 56.3595 134.713 56.6739C134.372 56.9875 133.977 57.2372 133.545 57.4107C133.077 57.5805 132.581 57.6637 132.082 57.6563ZM132.082 56.7967C132.45 56.8032 132.816 56.7353 133.156 56.5971C133.474 56.4752 133.76 56.2866 133.997 56.0445C134.24 55.8278 134.432 55.5603 134.557 55.2616C134.697 54.9313 134.766 54.5758 134.759 54.2178C134.764 53.8599 134.696 53.5048 134.557 53.174C134.438 52.8587 134.246 52.575 133.997 52.345C133.752 52.1127 133.468 51.9255 133.156 51.7924C132.466 51.5269 131.699 51.5269 131.008 51.7924C130.692 51.9253 130.402 52.1124 130.152 52.345C129.905 52.5911 129.71 52.8836 129.579 53.2053C129.448 53.5269 129.383 53.8712 129.389 54.2178C129.383 54.5758 129.452 54.9313 129.592 55.2616C129.723 55.5709 129.913 55.8523 130.152 56.0905C130.394 56.3334 130.686 56.5219 131.008 56.6432C131.352 56.7657 131.717 56.8179 132.082 56.7967Z" fill="white"/>
<path d="M141.11 57.5793V50.7637H142.091V56.0289L146.184 50.7637H147.087V57.5793H146.122V52.3294L142.013 57.5793H141.11Z" fill="white"/>
<path d="M154.419 57.5797V51.4395L154.652 51.6851H152.053V50.8408H157.75V51.6851H155.15L155.384 51.4395V57.5797H154.419Z" fill="white"/>
<path d="M163.696 56.7964H167.727V57.6407H162.715V50.7637H167.602V51.6079H163.696V56.7964ZM163.618 53.7263H167.167V54.5552H163.618V53.7263Z" fill="white"/>
<path d="M172.708 57.6559H172.412H172.085V56.7962C172.188 56.8114 172.293 56.8114 172.397 56.7962C172.533 56.8027 172.668 56.7751 172.791 56.716C172.913 56.657 173.018 56.5684 173.097 56.4585C173.3 56.1484 173.427 55.7966 173.471 55.4301C173.563 54.8506 173.62 54.2663 173.642 53.6801L173.751 50.8096H178.623V57.6252H177.642V51.485L177.891 51.7306H174.404L174.622 51.4696V53.7262C174.613 54.322 174.567 54.9167 174.482 55.5068C174.439 55.9403 174.329 56.3648 174.155 56.7655C174.044 57.0673 173.85 57.3328 173.595 57.5331C173.322 57.6709 173.009 57.7142 172.708 57.6559Z" fill="white"/>
<path d="M187.635 53.143C188.307 53.1006 188.973 53.2906 189.518 53.6803C189.748 53.8801 189.928 54.1295 190.044 54.409C190.16 54.6886 190.209 54.9907 190.188 55.2921C190.21 55.6136 190.157 55.9358 190.033 56.2339C189.909 56.532 189.717 56.798 189.472 57.0113C188.889 57.423 188.179 57.6237 187.464 57.5793H184.6V50.7637H185.58V53.143H187.635ZM187.417 56.7964C187.891 56.8293 188.36 56.693 188.74 56.4126C188.899 56.2738 189.023 56.1001 189.101 55.9054C189.18 55.7108 189.211 55.5007 189.192 55.2921C189.21 55.0926 189.178 54.8918 189.099 54.7072C189.021 54.5226 188.897 54.3597 188.74 54.2329C188.349 53.9802 187.884 53.8615 187.417 53.8952H185.58V56.7964H187.417Z" fill="white"/>
<path d="M196.398 57.5797H195.402V50.7641H196.398V57.5797ZM200.461 54.5096H196.289V53.7267H200.461V54.5096ZM200.368 50.7334H201.348V57.549H200.368V50.7334Z" fill="white"/>
<path d="M206.313 57.5793L209.427 50.7637H210.407L213.52 57.5793H212.477L209.676 51.3163H210.205L207.403 57.5793H206.313ZM207.637 55.8754L207.901 55.0925H211.761L212.042 55.8754H207.637Z" fill="white"/>
<path d="M222.284 57.5795V55.369L222.548 55.5993H220.385C219.886 55.6145 219.39 55.5146 218.937 55.3076C218.546 55.141 218.219 54.856 218.003 54.494C217.775 54.108 217.662 53.6665 217.676 53.22C217.664 52.7503 217.789 52.287 218.034 51.8845C218.257 51.5132 218.596 51.2226 218.999 51.0555C219.464 50.8502 219.969 50.7505 220.478 50.7639H223.249V57.5795H222.284ZM217.614 57.5795L219.326 55.1695H220.338L218.672 57.5795H217.614ZM222.284 55.0467V51.3319L222.548 51.6082H220.525C220.032 51.5725 219.543 51.7204 219.155 52.0226C218.993 52.1741 218.867 52.358 218.783 52.5619C218.7 52.7658 218.662 52.985 218.672 53.2046C218.661 53.4194 218.695 53.6343 218.772 53.8352C218.85 54.0362 218.97 54.2188 219.124 54.3712C219.501 54.6715 219.979 54.8196 220.462 54.7857H222.548L222.284 55.0467Z" fill="white"/>
<path d="M235.576 57.5793V50.7637H236.541V57.5793H235.576ZM236.246 54.5859V53.7263H238.487V54.5859H236.246ZM238.612 54.2789L237.709 54.1408L240.184 50.7637H241.242L238.612 54.2789ZM240.168 57.5793L237.662 54.2175L238.456 53.7417L241.304 57.5793H240.168Z" fill="white"/>
<path d="M249.227 57.6563C248.727 57.666 248.229 57.5773 247.764 57.3953C247.323 57.2315 246.921 56.9808 246.581 56.6585C246.253 56.3456 245.993 55.9694 245.818 55.5533C245.627 55.1175 245.532 54.6466 245.538 54.1717C245.534 53.7095 245.625 53.2512 245.804 52.8241C245.983 52.3969 246.247 52.0096 246.581 51.685C246.918 51.3664 247.314 51.1161 247.749 50.9482C248.221 50.7733 248.722 50.6849 249.227 50.6872C250.2 50.669 251.142 51.0208 251.858 51.6696C252.179 51.9882 252.438 52.363 252.62 52.7749C252.994 53.6697 252.994 54.6738 252.62 55.5686C252.438 55.9805 252.179 56.3553 251.858 56.6739C251.517 56.9875 251.122 57.2372 250.69 57.4107C250.222 57.5805 249.726 57.6637 249.227 57.6563ZM249.227 56.7967C249.59 56.8033 249.951 56.7354 250.286 56.5971C250.608 56.4758 250.9 56.2873 251.142 56.0445C251.381 55.8062 251.571 55.5248 251.702 55.2156C251.842 54.8853 251.911 54.5298 251.904 54.1717C251.911 53.8252 251.846 53.4809 251.715 53.1592C251.584 52.8376 251.389 52.5451 251.142 52.299C250.629 51.8093 249.941 51.5389 249.227 51.5468C248.86 51.548 248.496 51.6157 248.153 51.7464C247.837 51.8793 247.547 52.0664 247.297 52.299C247.053 52.5332 246.862 52.8157 246.737 53.1279C246.598 53.4587 246.529 53.8139 246.534 54.1717C246.528 54.5298 246.597 54.8853 246.737 55.2156C246.866 55.5282 247.058 55.8118 247.302 56.0492C247.545 56.2866 247.835 56.473 248.153 56.5971C248.494 56.7353 248.859 56.8032 249.227 56.7967Z" fill="white"/>
<path d="M258.255 57.5793V50.7637H259.065L262.178 55.9214H261.742L264.855 50.7637H265.664V57.5793H264.684V52.1913H264.917L262.162 56.7964H261.695L258.956 52.1913H259.205V57.5332L258.255 57.5793Z" fill="white"/>
<path d="M271.517 57.5793V50.7637H277.478V57.5793H276.513V51.4391L276.747 51.6847H272.248L272.497 51.4391V57.5793H271.517Z" fill="white"/>
<path d="M282.428 57.5793L285.541 50.7637H286.522L289.635 57.5793H288.608L285.806 51.3163H286.195L283.409 57.5793H282.428ZM283.767 55.8754L284.031 55.0925H287.923L288.218 55.8754H283.767Z" fill="white"/>
<path d="M295.628 57.5797H294.631V50.7641H295.628V57.5797ZM299.69 54.5096H295.534V53.7267H299.69V54.5096ZM299.597 50.7334H300.593V57.549H299.597V50.7334Z" fill="white"/>
<path d="M306.492 57.5793V50.7637H307.473V56.0289L311.567 50.7637H312.485V57.5793H311.504V52.3294L307.411 57.5793H306.492Z" fill="white"/>
<path d="M322.493 57.5796V55.3692L322.742 55.5994H320.579C320.087 55.5956 319.602 55.48 319.162 55.2617C318.773 55.099 318.45 54.8126 318.244 54.4481C318.016 54.0621 317.903 53.6206 317.917 53.1741C317.901 52.7059 318.019 52.2427 318.26 51.8386C318.493 51.4702 318.835 51.181 319.24 51.0096C319.705 50.8043 320.21 50.7046 320.719 50.718H323.49V57.5336L322.493 57.5796ZM317.824 57.5796L319.536 55.1696H320.532L318.867 57.5796H317.824ZM322.493 55.0468V51.332L322.742 51.6083H320.719C320.226 51.5771 319.739 51.7245 319.349 52.0228C319.19 52.1756 319.067 52.3601 318.986 52.564C318.906 52.7678 318.87 52.9863 318.882 53.2048C318.87 53.4196 318.904 53.6344 318.982 53.8354C319.06 54.0364 319.18 54.219 319.334 54.3714C319.704 54.672 320.178 54.8204 320.657 54.7858H322.742L322.493 55.0468Z" fill="white"/>
<path d="M323.459 40.3096H97.1068V41.5069H323.459V40.3096Z" fill="url(#paint0_linear_140_327)"/>
<path d="M26.9536 60.8951L19.887 63.3665V33.1722C19.887 29.3192 23.9028 23.9619 26.9692 23.9619L26.9536 60.8951Z" fill="url(#paint1_linear_140_327)"/>
<path d="M30.4714 46.0507V8.9947L37.5537 6.56934V35.8733C37.5537 39.7263 33.6623 46.0507 30.4714 46.0507Z" fill="url(#paint2_linear_140_327)"/>
<path d="M57.6642 22.1351C58.0029 22.5238 58.4241 22.8344 58.8979 23.0449C59.3717 23.2554 59.8867 23.3607 60.4063 23.3534C60.926 23.3461 61.4376 23.2263 61.9052 23.0025C62.3727 22.7787 62.7847 22.4564 63.1121 22.0584C63.6335 21.391 63.9004 20.5642 63.8663 19.7223C63.8322 18.8805 63.4991 18.0774 62.9253 17.4532C60.1086 14.2217 56.6557 11.5881 52.7761 9.71202C48.8964 7.83592 44.6708 6.75645 40.3555 6.53906V13.5696C43.6757 13.7791 46.9192 14.6454 49.8928 16.117C52.8664 17.5885 55.5093 19.6352 57.6642 22.1351Z" fill="white"/>
<path d="M13.8476 37.9765C13.8719 31.6861 16.3427 25.6446 20.7505 21.0977C25.1583 16.5509 31.1671 13.8452 37.5381 13.5386V6.52344C31.2138 6.74646 25.0996 8.81898 19.9727 12.4775C14.8458 16.1361 10.9378 21.2154 8.74539 27.0699C6.55302 32.9243 6.17533 39.2894 7.66034 45.3561C9.14534 51.4228 12.426 56.917 17.0852 61.1403V50.0266C14.9672 46.3537 13.8516 42.2017 13.8476 37.9765Z" fill="white"/>
<path d="M62.505 53.2199C61.7555 52.707 60.8387 52.4887 59.9345 52.608C59.0303 52.7273 58.2039 53.1755 57.6174 53.8647C55.2911 56.5584 52.3994 58.7218 49.1422 60.2053C45.885 61.6889 42.34 62.4572 38.7522 62.4572C35.1644 62.4572 31.6194 61.6889 28.3622 60.2053C25.105 58.7218 22.2133 56.5584 19.887 53.8647V63.3359C26.3963 68.0518 34.4769 70.1578 42.4988 69.2291C50.5208 68.3004 57.8871 64.4061 63.112 58.3316C63.4314 57.9648 63.6703 57.5366 63.8135 57.0741C63.9568 56.6116 64.0013 56.1249 63.9442 55.6446C63.8872 55.1643 63.7298 54.7009 63.4821 54.2836C63.2344 53.8663 62.9017 53.5041 62.505 53.2199Z" fill="white"/>
<path d="M38.5965 75.9997C30.9741 75.9997 23.5228 73.7706 17.1849 69.5943C10.8471 65.418 5.90732 59.482 2.99033 52.537C0.0733393 45.592 -0.689879 37.9499 0.797191 30.5771C2.28426 23.2044 5.95483 16.4321 11.3447 11.1166C16.7346 5.80111 23.6018 2.18123 31.0778 0.714699C38.5538 -0.751836 46.3029 0.000843132 53.3451 2.87755C60.3873 5.75427 66.4064 10.6258 70.6413 16.8761C74.8761 23.1265 77.1364 30.4749 77.1364 37.9921C77.1282 48.0698 73.0651 57.7325 65.8392 64.8586C58.6134 71.9846 48.8154 75.9916 38.5965 75.9997ZM38.5965 2.026C31.3798 2.026 24.3251 4.13666 18.3248 8.09103C12.3245 12.0454 7.6481 17.6658 4.88707 24.2415C2.12605 30.8171 1.40443 38.0526 2.81348 45.0327C4.22254 52.0128 7.69897 58.4241 12.8031 63.4556C17.9072 68.487 24.4097 71.9127 31.4882 73.2993C38.5666 74.686 45.9031 73.9712 52.5696 71.2455C59.2361 68.5198 64.9333 63.9056 68.9405 57.9865C72.9476 52.0673 75.0848 45.1092 75.0818 37.9921C75.0694 28.4544 71.221 19.311 64.3809 12.5683C57.5408 5.82551 48.2678 2.03412 38.5965 2.026Z" fill="url(#paint3_linear_140_327)"/>
</g>
<defs>
<linearGradient id="paint0_linear_140_327" x1="97.1068" y1="40.9082" x2="323.459" y2="40.9082" gradientUnits="userSpaceOnUse">
<stop stop-color="#BC8459"/>
<stop offset="0.28" stop-color="#97623E"/>
<stop offset="0.42" stop-color="#C3825A"/>
<stop offset="0.55" stop-color="#EA9E72"/>
<stop offset="0.63" stop-color="#F9A97B"/>
<stop offset="0.71" stop-color="#E79B70"/>
<stop offset="0.88" stop-color="#BA7753"/>
<stop offset="1" stop-color="#975B3D"/>
</linearGradient>
<linearGradient id="paint1_linear_140_327" x1="46.317" y1="4.60502" x2="1.39125" y2="88.1453" gradientUnits="userSpaceOnUse">
<stop stop-color="#BC8459"/>
<stop offset="0.28" stop-color="#97623E"/>
<stop offset="0.42" stop-color="#C3825A"/>
<stop offset="0.55" stop-color="#EA9E72"/>
<stop offset="0.63" stop-color="#F9A97B"/>
<stop offset="0.71" stop-color="#E79B70"/>
<stop offset="0.88" stop-color="#BA7753"/>
<stop offset="1" stop-color="#975B3D"/>
</linearGradient>
<linearGradient id="paint2_linear_140_327" x1="47.6089" y1="57.1797" x2="22.4606" y2="-1.57622" gradientUnits="userSpaceOnUse">
<stop stop-color="#BC8459"/>
<stop offset="0.28" stop-color="#97623E"/>
<stop offset="0.42" stop-color="#C3825A"/>
<stop offset="0.55" stop-color="#EA9E72"/>
<stop offset="0.63" stop-color="#F9A97B"/>
<stop offset="0.71" stop-color="#E79B70"/>
<stop offset="0.88" stop-color="#BA7753"/>
<stop offset="1" stop-color="#975B3D"/>
</linearGradient>
<linearGradient id="paint3_linear_140_327" x1="0.0722233" y1="37.9921" x2="77.1364" y2="37.9921" gradientUnits="userSpaceOnUse">
<stop stop-color="#BC8459"/>
<stop offset="0.28" stop-color="#97623E"/>
<stop offset="0.42" stop-color="#C3825A"/>
<stop offset="0.55" stop-color="#EA9E72"/>
<stop offset="0.63" stop-color="#F9A97B"/>
<stop offset="0.71" stop-color="#E79B70"/>
<stop offset="0.88" stop-color="#BA7753"/>
<stop offset="1" stop-color="#975B3D"/>
</linearGradient>
<clipPath id="clip0_140_327">
<rect width="323.386" height="76" fill="white" transform="translate(0.0722656)"/>
</clipPath>
</defs>
</svg>
