<svg width="125" height="125" fill="none" xmlns="http://www.w3.org/2000/svg"><path d="M43.615 100.065l-11.46 4.06V54.521c0-6.33 6.513-15.13 11.485-15.13l-.025 60.674z" fill="url(#paint0_linear_140_187)"/><path d="M49.319 75.679V14.803l11.484-3.985V58.96c0 6.33-6.31 16.72-11.484 16.72z" fill="url(#paint1_linear_140_187)"/><path d="M93.413 36.39a5.756 5.756 0 008.834-.127 5.893 5.893 0 00-.303-7.565 51.729 51.729 0 00-16.457-12.717 51.778 51.778 0 00-20.14-5.213v11.55a40.234 40.234 0 0128.066 14.071zm-71.05 26.024a40.33 40.33 0 0111.193-27.728 40.4 40.4 0 0127.222-12.419V10.743a51.77 51.77 0 00-28.483 9.781 51.701 51.701 0 00-18.206 23.973 51.653 51.653 0 00-1.76 30.04 51.687 51.687 0 0015.284 25.931V82.21a40.095 40.095 0 01-5.25-19.796z" fill="#2C3F68"/><path d="M101.263 87.456a5.935 5.935 0 00-7.925 1.06 40.177 40.177 0 01-13.743 10.416 40.21 40.21 0 01-47.44-10.417v15.56a51.776 51.776 0 0070.092-8.221 5.744 5.744 0 00-.984-8.398z" fill="#2C3F68"/><path d="M62.494 124.879a62.533 62.533 0 01-34.72-10.523A62.45 62.45 0 014.757 86.334a62.389 62.389 0 01-3.556-36.076 62.422 62.422 0 0117.103-31.97A62.511 62.511 0 0150.302 1.2 62.545 62.545 0 0186.41 4.753a62.482 62.482 0 0128.046 22.997 62.401 62.401 0 0110.533 34.69 62.464 62.464 0 01-18.319 44.136 62.572 62.572 0 01-44.176 18.303zm0-121.525a59.2 59.2 0 00-32.871 9.964A59.122 59.122 0 007.833 39.85 59.063 59.063 0 004.47 74.006a59.092 59.092 0 0016.199 30.265 59.178 59.178 0 0030.299 16.172 59.209 59.209 0 0034.184-3.374A59.153 59.153 0 00111.7 95.287a59.08 59.08 0 009.958-32.847 59.137 59.137 0 00-17.352-41.767 59.24 59.24 0 00-41.81-17.319z" fill="url(#paint2_linear_140_187)"/><defs><linearGradient id="paint0_linear_140_187" x1="75.013" y1="7.591" x2=".681" y2="144.024" gradientUnits="userSpaceOnUse"><stop stop-color="#BC8459"/><stop offset=".28" stop-color="#97623E"/><stop offset=".42" stop-color="#C3825A"/><stop offset=".55" stop-color="#EA9E72"/><stop offset=".63" stop-color="#F9A97B"/><stop offset=".71" stop-color="#E79B70"/><stop offset=".88" stop-color="#BA7753"/><stop offset="1" stop-color="#975B3D"/></linearGradient><linearGradient id="paint1_linear_140_187" x1="77.108" y1="93.962" x2="35.423" y2="-2.17" gradientUnits="userSpaceOnUse"><stop stop-color="#BC8459"/><stop offset=".28" stop-color="#97623E"/><stop offset=".42" stop-color="#C3825A"/><stop offset=".55" stop-color="#EA9E72"/><stop offset=".63" stop-color="#F9A97B"/><stop offset=".71" stop-color="#E79B70"/><stop offset=".88" stop-color="#BA7753"/><stop offset="1" stop-color="#975B3D"/></linearGradient><linearGradient id="paint2_linear_140_187" x1=".025" y1="62.44" x2="124.989" y2="62.44" gradientUnits="userSpaceOnUse"><stop stop-color="#BC8459"/><stop offset=".28" stop-color="#97623E"/><stop offset=".42" stop-color="#C3825A"/><stop offset=".55" stop-color="#EA9E72"/><stop offset=".63" stop-color="#F9A97B"/><stop offset=".71" stop-color="#E79B70"/><stop offset=".88" stop-color="#BA7753"/><stop offset="1" stop-color="#975B3D"/></linearGradient></defs></svg>