<svg width="45" height="70" fill="none" xmlns="http://www.w3.org/2000/svg"><path d="M35 58c5.523 0 10-4.477 10-10s-4.477-10-10-10-10 4.477-10 10 4.477 10 10 10z" fill="url(#paint0_linear_140_144)"/><path d="M2.245 67.216S10.96 52.905 14.41 40.755c3.45-12.15 4.644-28.27 4.644-28.27m-.474-5.893h4.831s.112 19.249 4.98 33.799c3.261 9.44 7.4 18.55 12.364 27.202M20.597 2.257V6.29M12.89 33.97h16.771M8.358 49.048h25.91M11 68s2.286-9.203 10.33-8.997C29.377 59.21 32 68 32 68" stroke="#fff" stroke-width="3" stroke-miterlimit="10" stroke-linecap="round"/><defs><linearGradient id="paint0_linear_140_144" x1="19.872" y1="56.846" x2="50.893" y2="38.705" gradientUnits="userSpaceOnUse"><stop stop-color="#BC8459"/><stop offset=".28" stop-color="#97623E"/><stop offset=".42" stop-color="#C3825A"/><stop offset=".55" stop-color="#EA9E72"/><stop offset=".63" stop-color="#F9A97B"/><stop offset=".71" stop-color="#E79B70"/><stop offset=".88" stop-color="#BA7753"/><stop offset="1" stop-color="#975B3D"/></linearGradient></defs></svg>