<svg width="52" height="64" fill="none" xmlns="http://www.w3.org/2000/svg"><path d="M41 24c6.075 0 11-4.925 11-11S47.075 2 41 2 30 6.925 30 13s4.925 11 11 11z" fill="url(#paint0_linear_140_167)"/><path d="M20.559 60.73c-.723-.947-1.39-1.782-2.057-2.687-1.85-2.673-3.754-5.304-5.56-8.047a84.977 84.977 0 01-5.895-10.902 57.74 57.74 0 01-3.864-11.138 30.229 30.229 0 01-.765-9.008 17.77 17.77 0 012.6-7.81 18.185 18.185 0 015.324-5.57 17.959 17.959 0 016.95-2.784 18.142 18.142 0 019.244.696 17.507 17.507 0 015.27 2.882 18.177 18.177 0 015.198 6.53 19.518 19.518 0 011.627 10.122 41.823 41.823 0 01-2.294 10.4 62.878 62.878 0 01-4.17 9.523c-1.46 2.66-2.92 5.332-4.546 7.894-1.821 2.785-3.823 5.57-5.77 8.256-.374.488-.82 1.017-1.292 1.643z" stroke="#fff" stroke-width="3" stroke-miterlimit="10"/><circle cx="21" cy="22" r="5.5" stroke="#fff" stroke-width="3"/><defs><linearGradient id="paint0_linear_140_167" x1="18.803" y1="28.222" x2="62.813" y2="-1.946" gradientUnits="userSpaceOnUse"><stop stop-color="#BC8459"/><stop offset=".28" stop-color="#97623E"/><stop offset=".42" stop-color="#C3825A"/><stop offset=".55" stop-color="#EA9E72"/><stop offset=".63" stop-color="#F9A97B"/><stop offset=".71" stop-color="#E79B70"/><stop offset=".88" stop-color="#BA7753"/><stop offset="1" stop-color="#975B3D"/></linearGradient></defs></svg>