<?xml version="1.0" standalone="no"?>
<!DOCTYPE svg PUBLIC "-//W3C//DTD SVG 20010904//EN"
 "http://www.w3.org/TR/2001/REC-SVG-20010904/DTD/svg10.dtd">
<svg version="1.0" xmlns="http://www.w3.org/2000/svg"
 width="700.000000pt" height="700.000000pt" viewBox="0 0 700.000000 700.000000"
 preserveAspectRatio="xMidYMid meet">
<metadata>
Created by potrace 1.14, written by Peter Selinger 2001-2017
</metadata>
<g transform="translate(0.000000,700.000000) scale(0.100000,-0.100000)"
fill="#000000" stroke="none">
<path d="M3278 6995 c-1 -1 -42 -5 -89 -9 -47 -4 -95 -8 -105 -10 -10 -2 -41
-7 -69 -10 -27 -4 -72 -11 -100 -16 -27 -5 -61 -12 -75 -14 -83 -14 -199 -42
-300 -71 -1146 -330 -2038 -1205 -2389 -2345 -37 -122 -89 -345 -105 -455 -2
-16 -8 -50 -12 -75 -20 -131 -29 -272 -29 -495 0 -256 12 -403 50 -605 3 -14
7 -41 10 -60 11 -68 75 -310 109 -413 144 -435 357 -817 655 -1172 135 -161
385 -399 536 -510 22 -17 42 -33 45 -36 8 -9 222 -154 255 -173 17 -9 48 -28
70 -41 112 -69 387 -199 555 -262 81 -30 311 -101 353 -108 17 -3 33 -8 37
-10 6 -4 131 -31 185 -41 84 -14 223 -33 285 -39 41 -3 93 -8 115 -11 58 -6
399 -6 475 1 136 11 179 16 300 36 807 128 1520 517 2074 1129 328 363 600
853 743 1340 23 79 66 253 76 310 19 100 27 151 32 190 3 25 8 63 11 85 16
125 21 245 18 455 -1 129 -5 244 -7 255 -3 12 -8 50 -11 86 -7 72 -7 67 -35
230 -199 1131 -980 2116 -2041 2576 -223 97 -538 196 -725 228 -22 4 -49 9
-60 11 -18 3 -172 25 -280 39 -42 6 -551 15 -557 10z m517 -195 c33 -5 84 -11
114 -14 29 -3 79 -10 110 -15 31 -6 72 -13 91 -16 19 -3 55 -11 80 -16 25 -6
54 -12 64 -15 60 -12 195 -50 286 -81 940 -316 1677 -1012 2041 -1931 81 -204
156 -472 184 -657 10 -65 16 -103 19 -121 2 -11 7 -54 11 -95 4 -41 9 -92 11
-114 5 -56 5 -379 -1 -445 -4 -60 -14 -158 -20 -202 -3 -25 -6 -49 -21 -141
-2 -15 -11 -60 -20 -100 -8 -39 -17 -79 -19 -88 -13 -62 -69 -256 -91 -314
-14 -38 -31 -88 -39 -110 -7 -22 -28 -76 -48 -120 -367 -845 -1037 -1483
-1893 -1805 -174 -65 -474 -144 -621 -164 -22 -3 -52 -7 -65 -10 -88 -19 -271
-31 -473 -30 -240 0 -369 11 -585 50 -14 2 -38 6 -55 9 -83 15 -287 70 -410
111 -946 316 -1699 1044 -2050 1982 -92 248 -166 563 -190 812 -4 36 -8 85
-11 110 -5 53 -5 421 0 465 2 17 7 64 10 105 8 84 9 89 31 215 23 137 25 147
37 190 5 22 12 48 14 59 8 45 58 209 91 301 166 466 419 869 768 1221 335 339
695 577 1140 754 131 52 340 119 425 135 8 2 33 8 55 14 22 5 56 13 75 16 19
3 42 8 50 10 8 2 29 6 45 9 17 2 49 7 73 11 67 11 92 14 172 20 41 3 76 8 78
10 7 7 480 2 537 -5z"/>
<path d="M3307 6394 c-1 -1 -36 -5 -77 -8 -95 -8 -195 -23 -285 -42 -38 -8
-79 -16 -90 -19 -257 -51 -610 -196 -872 -358 -277 -172 -473 -343 -717 -627
-172 -200 -380 -564 -479 -840 -41 -113 -82 -248 -92 -301 -2 -12 -7 -29 -10
-39 -7 -22 -11 -40 -31 -155 -32 -180 -38 -265 -39 -500 0 -232 7 -326 39
-500 9 -44 17 -91 20 -105 10 -60 51 -205 91 -325 134 -401 368 -782 670
-1092 56 -57 103 -103 106 -103 3 0 5 231 4 513 l-1 512 -46 85 c-128 241
-201 494 -237 820 -9 78 -7 384 2 417 3 10 8 45 12 78 22 207 106 477 219 704
224 449 602 817 1059 1031 124 57 196 85 203 77 3 -3 7 -646 7 -1429 l2 -1423
30 3 c176 17 410 280 538 607 20 50 38 102 41 117 2 15 7 31 10 36 16 27 20
265 20 1497 l1 1369 -48 1 c-26 1 -49 0 -50 -1z"/>
<path d="M3660 6073 l0 -323 23 -1 c12 0 29 -2 37 -3 8 -2 47 -7 85 -11 39 -5
72 -9 75 -10 3 -1 25 -5 50 -9 238 -41 523 -150 744 -284 184 -111 300 -204
486 -393 168 -170 202 -189 325 -185 126 3 223 68 278 184 48 102 38 217 -26
318 -35 56 -255 278 -367 371 -361 299 -782 505 -1240 606 -63 14 -131 28
-150 31 -54 7 -220 25 -272 29 l-48 4 0 -324z"/>
<path d="M2380 4785 c-196 -52 -419 -299 -527 -584 -53 -140 -52 -108 -53
-1623 l0 -1407 82 -56 c335 -231 761 -402 1158 -465 41 -6 86 -13 100 -16 117
-19 504 -26 645 -12 547 57 1047 250 1473 570 53 40 104 80 112 88 9 8 34 30
55 48 83 69 225 213 298 301 138 167 88 410 -102 500 -47 22 -70 26 -141 26
-129 0 -157 -17 -325 -189 -209 -215 -356 -327 -602 -458 -160 -85 -406 -175
-553 -201 -14 -3 -61 -12 -105 -20 -230 -44 -545 -43 -785 3 -208 40 -368 91
-557 180 l-110 51 1 1631 c1 1076 -2 1632 -9 1637 -5 5 -30 3 -55 -4z"/>
</g>
</svg>
